<svg width="2464" height="1856" viewBox="0 0 2464 1856" fill="none" xmlns="http://www.w3.org/2000/svg">
<path d="M997.121 259C999.04 259.244 1000.7 259.315 1002.29 260.579C1003.53 261.562 1004 263.222 1004 264.787C1003.99 274.829 993.202 288.843 986.956 296C984.512 295.849 983.513 295.594 981.388 294.156C980.376 292.303 979.925 291.545 980.01 289.334C980.328 281.05 991.417 264.831 997.121 259Z" fill="black"/>
<path d="M1080.2 350.173C1080.43 350.152 1080.68 350.129 1080.91 350.111C1084.62 349.833 1087.13 349.912 1090 352.34L1089.98 354.697C1085.06 363.675 1073.44 369.223 1064.75 374.049L1060.59 375C1058.12 374.461 1057.3 373.77 1055.51 372.123C1055.2 370.805 1054.72 369.979 1055.21 368.646C1058.17 360.49 1072.88 353.714 1080.2 350.173Z" fill="black"/>
<path d="M1051.1 574C1052.43 574.134 1053.7 574.28 1055.01 574.603C1064.68 576.988 1082.31 583.284 1087.77 591.89C1088.35 594.501 1087.79 595.691 1086.72 598C1082.78 597.774 1079.03 596.796 1075.22 595.823C1067.26 593.788 1055.15 590.616 1051.01 582.954C1049.29 579.769 1050.07 577.284 1051.1 574Z" fill="black"/>
<path d="M1078.28 469.427C1083.01 469.277 1087.74 469.157 1092.48 469.065C1098.42 468.96 1112.32 468.462 1116.48 473.318C1117.38 474.364 1116.88 474.953 1116.65 476.172C1114.47 478.582 1112.56 479.635 1109.63 480.979C1100.71 482.518 1084.73 484.931 1076.49 480.319C1074.39 479.147 1073.79 478.095 1073 475.898C1074.13 472.056 1075.03 471.47 1078.28 469.427Z" fill="black"/>
<path d="M879.037 223C880.876 223.335 883.075 223.982 884.421 225.459C887.589 228.933 887.864 235.072 887.966 239.615C888.158 248.136 887.722 259.532 881.848 266C880.2 265.461 878.481 264.422 877.244 263.157C873.75 259.582 873.176 251.767 873.043 246.856C872.817 238.576 873.304 229.213 879.037 223Z" fill="black"/>
<path d="M664.819 327C666.828 327.135 668.827 327.192 670.77 327.787C680.726 330.838 695.931 339.641 700.972 349.017C701.155 352.307 700.446 353.141 698.955 356C692.949 355.787 686.304 351.967 681.117 349.14C675.416 346.032 664.514 339.942 663.141 333.112C662.618 330.505 663.631 329.15 664.819 327Z" fill="black"/>
<path d="M621.216 439.957C630.962 438.574 649.352 438.119 658.286 442.611C660.52 443.735 661.134 444.698 662 446.979C661.604 449.808 660.574 450.868 658.71 452.833C649.316 454.522 630.171 454.938 621.453 450.185C619.338 449.033 618.728 448.1 618 445.865C618.648 442.969 619.103 442.023 621.216 439.957Z" fill="black"/>
<path d="M662.988 550.011C665.996 549.932 669.807 550.248 672.192 552.272C673.35 553.254 672.924 554.049 672.921 555.435C667.247 565.698 650.116 571.044 639.842 575C639.317 574.933 638.784 574.915 638.267 574.798C636.01 574.29 633.808 573.138 632.659 571.016C631.76 569.355 631.821 568.131 632.601 566.49C636.227 558.859 655.55 552.797 662.988 550.011Z" fill="black"/>
<path d="M755.596 245C757.111 245.051 758.903 245.014 760.315 245.665C767.806 249.119 780.667 272.948 782.648 281.02C783.466 284.356 782.817 286.112 781.128 289C779.757 288.764 778.343 288.516 777.036 288.029C768.635 284.896 758.997 267.839 755.868 259.895C753.665 254.304 753.209 250.551 755.596 245Z" fill="black"/>
<path d="M655.339 1131C664.946 1131.16 675.362 1139.42 682.065 1145.85C690.02 1153.48 696.99 1163.88 697 1175.34C697.006 1182.59 694.417 1186.81 689.464 1191.8C688.424 1192.58 687.373 1193.27 686.213 1193.86C681.792 1196.08 676.517 1196.76 671.806 1195.01C664.893 1192.43 660.295 1185.2 657.654 1178.62C652.117 1164.85 649.415 1144.88 655.339 1131ZM661.505 1142.87C661.409 1154.26 663.703 1175.11 672.303 1183.54C674.329 1185.52 676.937 1186.76 679.809 1186.63C681.804 1186.53 683.86 1185.47 685.502 1184.4C688.155 1178.99 688.838 1174.7 686.924 1168.87C683.566 1158.63 673.664 1148.57 664.179 1143.67C663.297 1143.21 662.467 1143.06 661.505 1142.87Z" fill="black"/>
<path d="M860.223 925C860.56 925.143 860.908 925.264 861.235 925.431C863.154 926.413 864.012 926.736 864.602 928.878C866.756 936.686 853.983 956.657 850.134 964.192C854.858 969.695 867.259 981.071 866.996 988.552C866.943 990.034 866.029 990.305 865.004 991.196C856.031 993.209 847.024 985.299 838.286 983.754C830.678 982.409 819.225 991.899 813.125 996.132C812.28 996.4 810.78 997.009 809.84 997C807.325 996.991 806.835 996.474 805.184 994.823C802.853 985.598 810.757 973.081 814.808 964.917C811.917 961.861 808.857 958.757 806.293 955.414C803.587 951.886 800.16 946.332 801.186 941.648C801.731 939.162 803.083 938.058 804.945 936.588C811.481 934.466 818.128 939.399 824.234 941.445C837.281 945.816 849.227 930.351 860.223 925ZM845.799 945.498C835.166 951.287 829.836 953.667 817.83 950.093C816.854 949.802 815.881 949.505 814.911 949.201C819.207 954.206 825.044 959.587 824.474 966.771C824.269 969.349 823.307 971.49 822.162 973.768L823.477 975.508C826.973 975.729 839.994 973.449 842.996 971.737C842.801 971.457 842.602 971.179 842.412 970.897C840.186 967.598 839.314 965.471 840.083 961.508C841.007 956.75 846.713 950.477 846.2 946.052L845.799 945.498Z" fill="black"/>
<path d="M1332.49 168C1334.11 168.354 1335.84 168.702 1337.36 169.374C1346.02 173.193 1342.57 191.215 1345.31 198.606C1348.38 206.848 1358.2 208.914 1365.44 211.939C1368.36 213.161 1369.79 214.48 1371 217.391C1370.3 228.965 1351.2 225.052 1344.17 233.104C1339.75 238.171 1342.32 245.099 1342.6 251.093C1342.84 256.177 1340.92 259.777 1337.63 263.48C1331.92 265.643 1331.86 256.145 1327.27 254.078L1324.83 255.538C1324.58 256.315 1324.31 257.088 1324.03 257.856C1322.52 261.952 1321 263.191 1317.09 265C1315.65 264.92 1314.78 265.262 1313.72 264.12C1308.54 258.521 1313.14 247.042 1313.61 240.353C1314.69 225.006 1295.22 227.081 1288.5 217.986C1287.13 216.128 1286.71 214.418 1287.19 212.119C1289.25 202.318 1308.46 208.987 1315.51 204.355C1320.66 200.959 1321.63 191.719 1322.9 186.059C1324.5 178.988 1326.01 172.106 1332.49 168ZM1333.1 199.374C1329.37 205.604 1325.97 212.885 1318.4 214.902C1316.15 215.503 1313.74 215.796 1311.43 216.144C1315.22 218.951 1319.71 221.652 1322.12 225.805C1322.3 226.121 1322.51 226.428 1322.68 226.747C1324.85 230.606 1324.38 234.887 1326.24 238.622C1335.66 229.829 1333.23 224.621 1346.96 217.474C1342.46 214.369 1336.78 210.923 1335 205.398C1334.35 203.4 1334.2 201.163 1333.1 199.374Z" fill="black"/>
<path d="M754.068 1144C760.847 1144.63 767.557 1149.88 772.644 1154.15C786.827 1166.04 802.792 1183.74 803.933 1203.18C804.584 1214.31 800.464 1222.25 793.265 1230.23C792.489 1230.81 791.686 1231.35 790.856 1231.85C790.027 1232.35 789.174 1232.8 788.299 1233.22C787.424 1233.63 786.53 1234 785.618 1234.33C784.706 1234.66 783.78 1234.94 782.84 1235.17C776.74 1236.72 770.862 1236.21 765.538 1232.69C756.026 1226.4 752.013 1214.14 750.22 1203.43C747.832 1189.19 745.456 1156.14 754.068 1144ZM758.619 1157.01C757.213 1175.58 755.567 1208.03 768.099 1222.96C770.381 1225.67 773.202 1227.43 776.821 1227.51C781.734 1227.6 785.881 1224.64 789.36 1221.47C794.181 1214.69 795.89 1208.49 794.448 1200.2C791.645 1184.07 777.778 1169.02 764.625 1160.16C762.744 1158.89 760.79 1157.7 758.619 1157.01Z" fill="black"/>
<path d="M873.154 1348.01C874.581 1347.98 875.934 1348 877.355 1348.18C888.693 1349.57 894.38 1358.94 900.716 1367.26C908.263 1362 917.178 1357.17 926.735 1357.67C930.965 1357.9 934.877 1359.36 937.661 1362.64C941.25 1366.85 942.399 1372.86 941.882 1378.24C940.558 1392.04 929.655 1403.69 919.528 1412.21C914.506 1416.18 908.756 1419.36 902.978 1422.11C897.776 1424.58 889.519 1428.63 883.83 1426.31C875.363 1422.87 868.043 1406.12 864.75 1398.31C859.788 1386.54 854.956 1370.78 860.41 1358.46C863.057 1352.48 867.327 1350.33 873.154 1348.01ZM873.536 1355.94C869.576 1359.18 868.291 1361.79 867.74 1366.89C866.154 1381.55 873.92 1402.76 883.226 1413.9C885.052 1416.1 887.049 1417.83 890.053 1417.93C899.301 1418.23 915.798 1403.99 922.12 1397.86C927.233 1392.37 935.138 1384.31 934.968 1376.33C934.904 1373.31 933.504 1370.82 931.19 1368.9C928.502 1366.65 924.873 1365.28 921.344 1365.72C911.762 1366.91 903.814 1380.79 895.68 1379.18C884.548 1370.57 894.499 1358.35 873.536 1355.94Z" fill="black"/>
<path d="M562.359 676.005C564.941 675.951 566.764 676.315 568.798 677.995C568.829 678.664 569.172 679.393 568.889 680C568.241 681.395 540.206 693.879 536.659 695.982C527.097 701.653 519.182 708.097 512.371 716.864C522.206 716.328 531.446 716.746 539.935 722.422C544.738 725.634 548.129 730.027 549.199 735.77C549.275 736.196 549.341 736.624 549.396 737.054C549.45 737.484 549.493 737.914 549.525 738.346C549.557 738.778 549.578 739.211 549.588 739.644C549.598 740.077 549.596 740.51 549.583 740.943C549.57 741.376 549.546 741.808 549.511 742.24C549.476 742.672 549.429 743.102 549.371 743.532C549.314 743.961 549.245 744.388 549.165 744.814C549.086 745.24 548.995 745.664 548.893 746.085C548.791 746.506 548.678 746.924 548.555 747.339C548.432 747.754 548.298 748.166 548.153 748.574C548.007 748.983 547.852 749.387 547.686 749.787C547.52 750.187 547.344 750.583 547.158 750.974C546.971 751.365 546.774 751.751 546.568 752.132C546.361 752.513 546.145 752.889 545.92 753.259C545.694 753.628 545.458 753.991 545.213 754.349C544.969 754.707 544.715 755.058 544.451 755.402C544.175 755.76 543.89 756.11 543.595 756.453C543.301 756.796 542.997 757.131 542.684 757.457C542.373 757.784 542.052 758.103 541.724 758.413C541.395 758.724 541.059 759.026 540.714 759.319C540.37 759.612 540.018 759.895 539.659 760.17C539.3 760.444 538.933 760.709 538.561 760.965C538.188 761.221 537.809 761.467 537.423 761.702C537.037 761.939 536.646 762.164 536.248 762.38C535.85 762.596 535.448 762.801 535.039 762.996C534.631 763.19 534.218 763.374 533.8 763.548C533.383 763.721 532.961 763.884 532.535 764.035C532.109 764.187 531.679 764.327 531.246 764.456C530.812 764.585 530.376 764.703 529.935 764.81C529.496 764.916 529.054 765.011 528.61 765.095C528.165 765.178 527.719 765.25 527.271 765.311C526.822 765.371 526.372 765.42 525.922 765.457C520.351 765.958 515.139 764.488 510.993 760.676C502.19 752.577 501.334 740.71 501.119 729.582C487.098 737.93 474.949 752.86 470.831 768.823C468.725 776.985 467.499 794.844 471.857 802.153C472.382 802.316 472.883 802.638 473.433 802.644C475.717 802.674 489.908 792.736 501.824 793.034C507.53 793.176 513.354 794.642 517.325 798.973C522.475 804.59 524.184 814.499 523.621 821.883C523.126 828.366 520.638 834.565 515.42 838.651C510.992 842.117 505.461 843.262 499.958 842.268C486.593 839.853 476.862 828.344 469.352 817.992C467.801 819.681 466.193 821.39 464.817 823.225C457.092 833.531 454.305 847.526 456.115 860.153C458.264 875.161 467.233 886.734 479.145 895.553C481.859 889.046 484.973 884.254 489.86 879.232C496.497 874.58 504.614 870.837 512.916 871.807C517.881 872.387 522.426 874.804 525.32 878.932C528.401 883.329 529.195 889.089 527.959 894.255C526.511 900.309 522.389 905.294 517.024 908.354C505.994 914.644 494.428 911.347 483.01 908.389C483.3 921.665 485.897 941.526 496.514 950.863C500.462 954.334 506.184 956.954 509.279 961.201C510.747 963.216 512.201 965.771 511.677 968.309L510.106 969C505.172 968.354 499.405 964.655 495.815 961.227C478.62 944.808 476.27 926.086 475.772 903.604L474.455 902.592C460.626 891.923 450.501 878.08 448.41 860.348C446.088 840.67 453.874 824.453 465.776 809.437C462.067 792.856 460.055 777.724 465.828 761.247C472.6 741.916 486.11 729.471 504.159 720.64C517.333 695.832 536.488 684.987 562.359 676.005ZM497.478 800.98C488.653 803.165 482.433 806.402 474.934 811.491C481.651 821.054 487.724 828.316 498.1 833.944C502.749 834.958 506.28 835.929 510.502 833.246C513.948 831.056 516.068 827.292 516.807 823.34C516.87 823.008 516.924 822.674 516.97 822.34C517.016 822.005 517.054 821.669 517.083 821.332C517.112 820.996 517.133 820.658 517.146 820.321C517.159 819.983 517.163 819.645 517.159 819.307C517.154 818.969 517.142 818.631 517.122 818.294C517.101 817.957 517.072 817.62 517.034 817.284C516.996 816.948 516.95 816.613 516.896 816.28C516.842 815.946 516.78 815.614 516.709 815.284C516.638 814.953 516.56 814.624 516.473 814.298C516.386 813.971 516.291 813.646 516.188 813.325C516.085 813.003 515.974 812.684 515.855 812.367C515.737 812.051 515.61 811.738 515.476 811.427C515.341 811.117 515.199 810.81 515.05 810.507C514.9 810.204 514.743 809.904 514.579 809.609C514.414 809.313 514.243 809.022 514.064 808.735C513.885 808.448 513.699 808.165 513.506 807.888C510.871 804.164 507.284 801.799 502.747 801.192C500.982 800.956 499.252 800.922 497.478 800.98ZM519.36 724.257C515.134 725.342 511.652 726.035 509.186 729.958C506.851 733.671 506.562 738.345 507.655 742.508C509.101 748.018 512.761 753.21 517.81 755.995C522.048 758.334 525.983 757.989 530.64 757.455C535.702 754.621 539.794 751.267 541.529 745.511C541.671 745.023 541.789 744.53 541.882 744.031C541.975 743.531 542.043 743.028 542.085 742.521C542.128 742.015 542.146 741.507 542.137 741C542.129 740.491 542.096 739.985 542.037 739.48C541.978 738.975 541.894 738.475 541.785 737.978C541.676 737.482 541.543 736.992 541.384 736.509C541.227 736.026 541.045 735.552 540.839 735.088C540.634 734.622 540.406 734.169 540.155 733.727C537.736 729.503 533.479 726.243 528.744 725.067C525.666 724.303 522.513 724.151 519.36 724.257ZM504.904 879.309C494.886 883.672 489.437 888.438 484.616 898.383C490.064 902.114 494.868 903.889 501.451 904.932C507.576 904.756 512.326 904.296 516.729 899.552C519.534 896.529 521.499 892.58 521.234 888.372C521.215 888.054 521.181 887.737 521.131 887.423C521.081 887.108 521.016 886.797 520.935 886.489C520.854 886.181 520.758 885.878 520.647 885.579C520.536 885.28 520.411 884.988 520.271 884.701C520.131 884.415 519.977 884.137 519.81 883.866C519.642 883.595 519.461 883.333 519.268 883.08C519.074 882.827 518.868 882.584 518.65 882.351C518.433 882.118 518.204 881.897 517.964 881.687C514.278 878.466 509.436 878.886 504.904 879.309Z" fill="black"/>
<path d="M1222.38 318.272C1225.79 317.864 1228.86 317.895 1232.25 318.501C1240.31 319.938 1246.42 323.744 1250.85 330.604C1259.34 343.767 1255.89 358.526 1253.02 372.709C1272.55 364.92 1293.89 357.356 1315.11 362.428C1323.21 364.363 1331.9 368.368 1336.16 375.799C1339.41 381.446 1339.7 388.33 1337.9 394.489C1331.94 414.943 1306.48 427.772 1289 437.104C1264.41 449.09 1239.6 461.692 1213.45 470.038C1208.6 471.583 1203.94 473.182 1199.18 470.746C1198.13 469.301 1197.61 468.25 1197.16 466.504C1194.39 455.588 1195.13 442.544 1194.4 431.274C1192.59 403.105 1184.88 356.64 1201.23 331.857C1206.5 323.884 1213.31 320.358 1222.38 318.272ZM1313.96 391.083L1243.26 398.76C1230.47 400.05 1217.16 400.438 1204.51 402.667C1204.8 407.763 1204.99 412.879 1205.7 417.937L1216.32 416.229C1235.61 413.499 1254.92 410.64 1274.27 408.444C1289.35 406.732 1304.65 405.713 1319.65 403.434C1321.93 400.406 1324.29 397.678 1325.39 394.003L1324.78 391.786C1321.25 389.958 1317.85 390.718 1313.96 391.083ZM1293.89 373.547C1281.2 375.339 1251.38 387.799 1242.84 384.361C1237.46 378.498 1244.8 374.395 1232.88 373.851C1223.46 373.421 1213.74 374.174 1204.3 374.492C1204.29 381.423 1204.21 388.362 1204.3 395.292C1210.88 394.844 1217.47 394.307 1224.05 393.962C1247.37 391.865 1270.59 389.161 1293.87 386.758C1301.78 385.941 1309.96 386.097 1317.8 384.923C1320.48 384.521 1322.57 384.089 1324.86 382.628L1325.36 380.865C1322.82 376.973 1318.38 375.11 1313.93 374.152C1307.37 372.742 1300.52 372.681 1293.89 373.547ZM1298.66 412.24C1268.67 415.206 1235.35 418.769 1206.2 425.827C1206.31 430.177 1205.61 436.827 1208.55 440.234C1210.71 441.01 1211.87 440.599 1214.02 440.091C1225.57 438.269 1237.13 436.543 1248.7 434.914C1257.74 433.731 1267.71 434.474 1276.14 430.886C1285.43 426.928 1297.99 421.668 1304.57 413.82L1304.61 412.443C1302.39 411.727 1300.93 411.97 1298.66 412.24ZM1234.13 351.652L1205.97 352.119C1205.17 357.553 1204.44 362.923 1204.11 368.408L1218.85 367.661C1225.14 367.471 1239.19 369.334 1243.47 364.147C1245.94 361.139 1245.37 355.332 1245.38 351.616L1234.13 351.652ZM1223.74 329.303C1215.81 332.868 1211.37 336.912 1207.68 344.777L1231.71 345.117L1246.31 345.71C1242.44 339.465 1238.09 331.951 1230.45 329.776C1228.34 329.175 1225.92 329.258 1223.74 329.303ZM1248.93 440.68C1240.38 442.266 1212.02 445.784 1207.33 451.489C1206.36 452.679 1206.64 453.626 1206.59 455.075L1208.46 458.285C1209.98 458.581 1210.92 458.704 1212.43 458.319C1223.81 454.251 1245.09 449.32 1253.85 442.113L1253.65 440.977C1252.04 440.766 1250.55 440.604 1248.93 440.68Z" fill="black"/>
<path d="M668.109 1273.35C677.919 1272.53 688.199 1273.08 697.733 1275.63C717.257 1280.88 726.738 1293.13 736.481 1309.96C742.536 1311.44 749.833 1314.39 753.274 1319.93C754.957 1322.63 755.404 1325.84 754.638 1328.94C752.475 1337.66 743.806 1342.21 736.853 1346.6C736.978 1352.91 736.878 1359.21 736.552 1365.5C735.674 1381.43 732.419 1397.51 719.824 1408.39C708.639 1418.06 695.483 1419.73 681.283 1418.76C676.278 1417.46 671.739 1416.12 667.287 1413.4C656.471 1406.76 651.987 1397.28 649.014 1385.45L643.065 1386.14C630.241 1387.62 614.674 1390.16 603.916 1380.95C601.645 1379.01 600.008 1376.54 600 1373.46C599.983 1366.62 605.871 1361.14 610.411 1356.8C609.643 1354.16 608.888 1351.49 608.35 1348.8C608.157 1347.83 607.989 1346.85 607.844 1345.86C607.699 1344.88 607.577 1343.89 607.48 1342.9C607.383 1341.91 607.309 1340.92 607.26 1339.93C607.211 1338.94 607.186 1337.94 607.185 1336.95C607.184 1335.96 607.207 1334.96 607.254 1333.97C607.301 1332.98 607.373 1331.98 607.468 1330.99C607.564 1330 607.683 1329.02 607.826 1328.03C607.969 1327.05 608.136 1326.07 608.326 1325.1C608.517 1324.12 608.732 1323.16 608.97 1322.19C609.207 1321.22 609.468 1320.26 609.753 1319.31C610.037 1318.36 610.344 1317.42 610.674 1316.48C611.004 1315.54 611.357 1314.61 611.732 1313.7C612.107 1312.77 612.505 1311.86 612.924 1310.97C613.343 1310.06 613.784 1309.17 614.246 1308.3C614.709 1307.42 615.192 1306.55 615.697 1305.7C616.202 1304.84 616.727 1304 617.272 1303.17C629.156 1285.1 647.812 1277.66 668.109 1273.35ZM672.49 1281.62C653.914 1284.78 635.907 1292 624.669 1307.96C613.927 1323.21 613.788 1338.86 616.702 1356.62C613.962 1360.22 608.975 1365.27 609.437 1370.15C609.668 1372.58 610.37 1374 612.295 1375.52C620.21 1381.78 645.839 1376.31 655.008 1374.21C660.916 1372.86 666.636 1371.01 672.371 1369.07C689.121 1362.07 737.021 1340.87 745.289 1326C745.248 1323.6 745.052 1322.61 743.328 1320.85C740.564 1318.03 734.385 1317.25 730.636 1316.35C719.895 1299.69 711.64 1287.41 690.99 1283.07C684.801 1281.77 678.792 1281.54 672.49 1281.62ZM726.324 1367.06C715.012 1373.64 667.968 1392.32 663.369 1397.48L663.269 1399.74C664.119 1400.58 664.957 1401.52 665.9 1402.25C680.748 1397.82 721.251 1381.33 729.664 1368.71L729.724 1367.45C728.38 1367.08 727.718 1366.79 726.324 1367.06ZM723.65 1384.44C715.956 1388.76 708.315 1392.82 700.173 1396.27C692.607 1399.46 684.024 1401.95 677.048 1406.28L678.666 1408.74C694.67 1409.37 708.294 1405.5 720.344 1394.36C722.723 1392.15 725.271 1389.22 725.382 1385.92C724.096 1384.51 724.764 1384.88 723.65 1384.44Z" fill="black"/>
<path d="M638.253 1306C639.543 1306.38 641.123 1306.75 642.271 1307.47C644.042 1308.57 644.817 1310.57 644.983 1312.58C645.209 1315.3 643.084 1317.98 641.581 1320C640.336 1319.5 638.952 1319 637.852 1318.22C636.044 1316.94 634.956 1314.5 635.001 1312.3C635.057 1309.6 636.592 1307.92 638.253 1306Z" fill="black"/>
<path d="M671.798 1290C673.484 1289.99 674.942 1290.23 676.5 1290.89C678.419 1291.71 679.831 1293.14 680.496 1295.05C681.811 1298.83 680.314 1302.2 678.754 1305.65C678.069 1305.81 677.318 1306.01 676.611 1306C674.351 1305.95 672.806 1305.41 671.391 1303.66C668.608 1300.22 670.674 1293.73 671.798 1290Z" fill="black"/>
<path d="M669.402 1332C670.85 1332.27 672.562 1332.53 673.837 1333.31C675.665 1334.42 676.678 1336.7 676.921 1338.72C677.485 1343.41 674.942 1347.56 672.02 1351C670.238 1350.89 668.755 1350.48 667.054 1349.97C665.005 1348.02 663.935 1346.12 664.003 1343.28C664.116 1338.53 666.107 1335.3 669.402 1332Z" fill="black"/>
<path d="M709.539 1311C711.332 1311.24 713.194 1311.76 714.68 1312.86C716.823 1314.45 718.263 1317.09 718.739 1319.72C719.631 1324.66 718.157 1328.91 715.572 1333C713.489 1332.67 711.89 1332.27 710.17 1330.94C707.76 1329.09 706.291 1325.32 706.059 1322.35C705.713 1317.91 706.887 1314.44 709.539 1311Z" fill="black"/>
<path d="M637.849 1342C638.363 1342.28 638.901 1342.52 639.393 1342.83C642.682 1344.92 643.884 1348.24 644.575 1351.87C645.759 1358.07 644.471 1363.89 640.67 1369C640.455 1368.83 640.233 1368.67 640.024 1368.49C635.464 1364.62 633.047 1358.96 633.001 1353.14C632.96 1347.8 633.989 1345.57 637.849 1342Z" fill="black"/>
<path d="M634.563 962.338C641.257 961.595 647.835 961.742 653.257 966.3C658.947 971.083 660.196 977.521 660.939 984.458C668.986 980.011 676.917 975.861 686.278 975.167C694.032 974.592 701.999 976.574 707.853 981.848C715.89 989.089 717.293 998.72 717.563 1008.86C726.658 1008.2 735.383 1008.51 743.532 1013.18C750.581 1017.23 756.109 1023.74 758.112 1031.68C758.234 1032.14 758.343 1032.6 758.44 1033.07C758.536 1033.54 758.62 1034.01 758.692 1034.48C758.764 1034.95 758.823 1035.42 758.87 1035.89C758.917 1036.37 758.951 1036.85 758.972 1037.32C758.994 1037.8 759.003 1038.28 758.999 1038.75C758.995 1039.23 758.979 1039.71 758.95 1040.18C758.921 1040.66 758.879 1041.14 758.825 1041.61C758.771 1042.08 758.704 1042.55 758.625 1043.02C758.545 1043.49 758.453 1043.96 758.35 1044.42C758.245 1044.89 758.129 1045.35 758 1045.82C757.872 1046.28 757.731 1046.73 757.578 1047.18C757.425 1047.64 757.261 1048.08 757.084 1048.53C756.907 1048.97 756.719 1049.41 756.52 1049.84C756.32 1050.27 756.109 1050.7 755.887 1051.12C755.664 1051.54 755.43 1051.96 755.185 1052.37C754.942 1052.78 754.686 1053.18 754.42 1053.58C740.458 1074.33 688.754 1081.45 665.567 1086.15C642.099 1091.26 594.779 1104.6 572.567 1094.05C567.374 1091.58 561.835 1087.12 559.944 1081.52C557.996 1075.75 559.213 1069.07 562.215 1063.88C568.013 1053.85 578.825 1049.46 589.395 1046.33C584.287 1040.73 579.207 1035.36 577.262 1027.8C576.019 1022.97 576.444 1017.48 579.083 1013.16C581.098 1009.86 584.242 1007.76 588.014 1006.93C596.305 1005.12 603.165 1008.5 610.003 1012.58C610.693 1002 611.314 989.516 615.456 979.658C619.318 970.47 625.598 965.882 634.563 962.338ZM636.704 973.966C630.388 978.21 625.855 983.464 624.211 991.06C621.725 1002.55 629.642 1027.15 622.379 1034.52C619.796 1035.25 618.696 1035.35 616.224 1034.14C608.191 1030.21 602.427 1019.45 593.386 1017.98C591.28 1018.69 590.505 1018.97 589.37 1021.07C588.211 1023.22 588.815 1025.6 589.765 1027.68C593.608 1036.09 607.945 1046.04 605.291 1055.8C602.619 1059.02 599.547 1059.84 595.442 1060.28C590.459 1060.83 585.34 1059.99 580.327 1060.29C576.039 1063.14 571.85 1066.08 570.672 1071.41C569.931 1074.76 570.781 1078.17 572.875 1080.87C575.8 1084.64 580.816 1086.84 585.503 1087.26C589.78 1087.64 594.197 1086.57 597.517 1083.79C609.545 1073.72 633.656 1030.07 648.875 1028.67L651.399 1029.58C651.824 1031.35 652.05 1030.9 650.989 1032.72C646.668 1040.12 637.937 1047.4 632.035 1053.86C622.969 1063.76 613.795 1074.76 606.417 1085.96C614.216 1084.59 622.071 1083.37 629.799 1081.66C641.17 1068.74 670.438 1032.71 684.248 1027.9L686.199 1028.26C686.388 1031.05 685.723 1032.72 683.904 1034.86C683.169 1035.72 682.373 1036.55 681.587 1037.37C667.864 1051.88 653.446 1065.58 639.549 1079.9C650.371 1077.87 661.178 1075.78 671.97 1073.62C677.1 1064.68 696.141 1040.42 705.736 1037.59C707.635 1037.03 707.969 1037.08 709.596 1037.98C709.98 1041.9 707.048 1045.45 704.647 1048.31C697.612 1056.72 688.247 1064.35 679.888 1071.47C696.527 1068.47 735.698 1062.36 745.627 1048.8C748.07 1045.47 748.264 1042.35 747.925 1038.37L746.731 1036.36C738.12 1036.91 733.415 1050.89 724.849 1050.69C723.263 1048.42 722.769 1046.31 723.203 1043.49C724.503 1035.02 742.563 1031.72 739.248 1022.78C730.583 1016.8 707.166 1027.94 704.714 1016.09C702.88 1007.22 709.263 996.737 699.88 989.934C695.973 987.103 690.457 985.32 685.639 986.171C671.294 988.705 659.528 1007.37 651.423 1007.74C649.439 1006.19 648.953 1005.23 648.634 1002.69C647.571 994.218 653.36 982.663 646.069 976.083C643.39 973.665 641.064 973.511 637.58 973.865C637.288 973.894 636.996 973.932 636.704 973.966Z" fill="black"/>
<path d="M1504.11 216C1508.31 216.264 1511.57 216.839 1515.15 219.205C1528.8 228.233 1531.51 250.124 1534.37 265.007C1550.48 250.948 1565.93 236.066 1588.93 237.123C1595.94 237.446 1603.21 239.657 1607.93 245.142C1612.1 249.971 1613.77 256.412 1613.15 262.718C1611.71 277.279 1600.09 287.488 1589.78 296.365C1592.65 297.227 1595.54 298.104 1598.34 299.196C1608.48 303.157 1613.92 310.364 1618 320.054C1615.61 326.97 1613.29 332.717 1607.67 337.742C1596.75 347.484 1581.61 345.899 1568.14 345.362C1573.47 354.97 1577.86 367.303 1577.53 378.445C1577.39 383.39 1576.1 388.702 1572.27 392.104C1569.12 394.907 1564.94 395.804 1560.84 395.326C1546.65 393.672 1535.76 378.315 1527.69 367.819L1526.59 367.382C1526.12 367.628 1525.58 367.77 1525.19 368.123C1524.18 369.037 1522.12 378.166 1521.47 380.045C1518.57 388.388 1515.02 396.672 1508.87 403.153C1505.25 406.967 1499.69 411.052 1494.2 410.999C1490.09 410.961 1486.78 408.701 1484.04 405.792C1472.15 393.165 1474.59 375.924 1475.18 360.033C1462.87 364.491 1449.15 369.997 1435.82 367.865C1429.71 366.889 1423.27 364.28 1419.65 358.986C1416.92 354.99 1416.45 350.22 1417.56 345.576C1421.17 330.497 1436.69 321.116 1448.92 313.631C1446.55 312.412 1444.18 311.19 1441.91 309.807C1433.7 304.808 1425.86 296.701 1423.71 287.077C1422.49 281.583 1423.23 275.867 1426.37 271.142C1430.13 265.51 1436.52 262.239 1443 260.954C1459.48 257.681 1473.86 266.608 1487.06 275.193C1485.13 260.6 1482.61 238.094 1490.56 225.067C1493.88 219.607 1498.13 217.571 1504.11 216ZM1585.78 249.291C1563.15 253.179 1546.1 269.146 1533.87 287.862C1532.36 290.173 1531.69 292.044 1531.93 294.836C1534.47 296.826 1542.23 295.408 1545.71 295.131C1564.43 294.316 1579.49 290.809 1592.68 276.384C1596.73 271.957 1602.15 264.645 1601.42 258.328C1601.1 255.562 1599.88 253.461 1597.6 251.914C1594 249.47 1589.99 249.201 1585.78 249.291ZM1489.33 315.955C1471.11 319.243 1444.12 323.424 1432.52 339.529C1430.21 342.735 1428.88 346.835 1429.67 350.801C1429.99 352.403 1430.5 353.217 1431.75 354.329C1433.67 356.04 1438.01 356.469 1440.45 356.876C1462.36 354.186 1482.7 344.256 1499.3 329.637C1497.07 325.336 1494.72 319.319 1491.14 316.082L1489.33 315.955ZM1533.6 303.952C1530.99 308.021 1531.72 310.818 1532.72 315.384C1533.19 317.516 1533.69 319.642 1534.22 321.761C1551.27 328.854 1575.6 338.926 1593.91 331.536C1594.86 331.152 1595.8 330.747 1596.73 330.319C1600.72 326.798 1602.76 324.686 1603.15 319.258C1602.01 315.394 1600.06 313.691 1596.52 311.843C1581.62 304.069 1550.52 303.17 1533.6 303.952ZM1508.02 334.888C1497.31 343.506 1486.87 350.051 1485.11 364.922C1484.08 373.606 1484.01 386.495 1489.28 393.857C1490.38 395.407 1491.87 396.678 1493.29 397.932C1499.56 396.607 1502.69 393.641 1506.07 388.213C1513.22 376.696 1517.41 357.047 1514.17 343.742C1513.21 339.826 1511.55 336.957 1508.02 334.888ZM1501.3 227.581C1496.04 240.081 1496.68 271.471 1501.22 284.046C1501.99 286.2 1502.93 288.343 1505.17 289.257C1510.05 291.251 1518.18 290.268 1523.58 291.043C1526.55 287.251 1525.36 278.653 1524.79 274.025C1523.51 263.654 1518.57 235.193 1508.98 228.946C1506.66 227.434 1503.98 227.461 1501.3 227.581ZM1447.34 272.466C1443.07 273.218 1437.52 275.006 1435.26 279.177C1434.15 281.203 1434.14 283.307 1434.96 285.433C1437.7 292.645 1445.68 298.283 1452.55 301.07C1462.24 305.001 1472.64 305.501 1482.94 304.863C1486.65 304.283 1490.54 304.207 1493.43 301.602C1494.45 299.39 1494.98 298.767 1494.22 296.31C1491.57 287.721 1468.23 277.463 1460.32 274.678C1456.05 273.179 1451.8 272.784 1447.34 272.466ZM1531.72 327.162C1528.34 330.273 1524.68 333.289 1521.75 336.822C1529.43 354.589 1542.5 374.124 1559.45 384.151C1561.99 383.799 1563.68 383.589 1565.38 381.429C1567.18 379.145 1566.81 376 1566.3 373.327C1563.09 356.521 1546.91 336.49 1532.71 327.622C1532.4 327.429 1532.05 327.316 1531.72 327.162ZM1505.31 297.268C1501.96 300.737 1501.26 304.393 1501.35 309.235C1501.36 309.586 1501.37 309.936 1501.4 310.286C1501.42 310.637 1501.45 310.987 1501.5 311.335C1501.53 311.684 1501.58 312.031 1501.64 312.377C1501.7 312.723 1501.77 313.067 1501.85 313.41C1501.92 313.752 1502 314.093 1502.09 314.431C1502.19 314.77 1502.29 315.106 1502.4 315.439C1502.51 315.772 1502.62 316.103 1502.75 316.43C1502.88 316.757 1503.01 317.082 1503.15 317.403C1503.29 317.723 1503.44 318.04 1503.6 318.353C1503.76 318.666 1503.93 318.975 1504.1 319.28C1504.27 319.585 1504.45 319.885 1504.64 320.181C1504.83 320.476 1505.02 320.767 1505.22 321.053C1505.43 321.339 1505.64 321.62 1505.85 321.895C1506.07 322.17 1506.29 322.44 1506.53 322.704C1506.75 322.968 1506.99 323.226 1507.23 323.478C1507.47 323.73 1507.72 323.976 1507.98 324.216C1510.34 326.405 1512.98 327.225 1516.14 327.004C1517.3 326.924 1518.44 326.771 1519.58 326.616C1523.07 323.759 1524.58 321.928 1525.1 317.356C1525.78 311.332 1523.99 306.673 1520.04 302.169C1517.17 298.892 1514.45 297.496 1510.1 297.291C1508.51 297.215 1506.9 297.247 1505.31 297.268Z" fill="black"/>
<path fill-rule="evenodd" clip-rule="evenodd" d="M726.519 636.106C726.277 636.06 726.057 636.019 725.878 635.981C715.33 646.469 707.272 657.586 699.934 670.51C670.024 677.168 643.079 689.385 626.236 716.236C610.369 741.533 604.527 776.024 611.48 805.101C618.538 834.618 640.798 862.86 666.566 878.494C686.454 890.561 706.004 892.902 728.842 891.241C761.151 884.424 790.627 869.213 809.226 840.992C824.974 817.097 831.655 786.734 825.708 758.577C819.749 730.368 801.885 708.697 778.011 693.27C758.4 680.597 736.28 672.964 713.279 669.44L713.937 668.295C715.11 666.282 717.334 663.452 719.814 660.296C725.418 653.162 732.335 644.359 731.412 639.534C731.165 638.239 730.289 637.5 729.172 636.846C728.558 636.486 727.392 636.269 726.519 636.106ZM731.28 724.358C727.977 724.158 724.769 724.153 721.464 724.303C722.386 734.264 725.813 743.407 729.259 752.602C730.883 756.932 732.51 761.274 733.882 765.719L743.87 763.266C746.2 758.277 741.467 745.808 738.914 739.082L738.914 739.081L738.912 739.078C738.587 738.221 738.298 737.458 738.062 736.815C737.893 736.352 737.719 735.86 737.537 735.347L737.536 735.343L737.536 735.343C736.175 731.497 734.416 726.525 731.28 724.358ZM675.224 740.034C675.12 739.992 675.012 739.948 674.896 739.9C674.443 740.027 673.979 740.144 673.513 740.263C671.325 740.817 669.079 741.386 667.54 743.08C667.839 752.949 677.264 775.347 683.527 782.963C683.728 783.005 683.939 783.057 684.155 783.109L684.155 783.109C684.755 783.256 685.393 783.412 685.959 783.406C686.423 783.207 686.914 783.013 687.415 782.816C689.376 782.041 691.498 781.203 692.799 779.724C691.429 771.297 683.376 746.553 676.952 741.026C676.312 740.475 675.868 740.295 675.225 740.034L675.224 740.034ZM769.191 775.567C773.131 775.957 776.17 776.338 778.912 779.32C779.159 785.438 773.636 793.312 770.161 798.267L770.038 798.444C757.964 815.659 738.977 829.346 718.003 832.884C696.31 836.542 680.818 827.799 663.763 815.583C663.719 815.54 663.676 815.496 663.632 815.453C663.546 815.367 663.46 815.281 663.374 815.195C662.208 814.034 661.009 812.84 660.035 811.524C658.352 809.249 656.596 803.524 657.099 800.829C657.255 799.986 657.346 799.937 657.834 799.671L657.835 799.671C657.98 799.592 658.161 799.493 658.389 799.349C663.344 799.752 669.141 804.358 674.944 808.97L674.945 808.97C679.293 812.425 683.645 815.883 687.649 817.579C701.458 823.428 715.688 823.84 729.593 817.988C748.217 810.15 761.68 793.99 769.191 775.567Z" fill="black"/>
<path d="M861.671 325.449C863.915 325.284 866.163 325.164 868.412 325.09C870.661 325.016 872.911 324.988 875.162 325.005C877.412 325.022 879.662 325.085 881.91 325.194C884.158 325.303 886.402 325.458 888.644 325.658C890.886 325.858 893.122 326.104 895.354 326.395C897.586 326.686 899.811 327.023 902.029 327.404C904.247 327.786 906.457 328.213 908.657 328.684C910.858 329.156 913.048 329.673 915.227 330.233C916.415 330.537 917.599 330.854 918.779 331.187C919.959 331.52 921.135 331.867 922.306 332.229C923.478 332.591 924.645 332.968 925.807 333.359C926.969 333.75 928.126 334.156 929.277 334.576C930.429 334.997 931.575 335.431 932.716 335.88C933.857 336.328 934.992 336.791 936.121 337.269C937.251 337.746 938.374 338.237 939.491 338.742C940.608 339.247 941.719 339.766 942.822 340.299C943.926 340.832 945.024 341.379 946.114 341.94C947.204 342.5 948.288 343.074 949.364 343.662C950.44 344.249 951.508 344.85 952.569 345.464C953.63 346.078 954.683 346.706 955.728 347.347C956.774 347.987 957.811 348.64 958.84 349.307C959.869 349.973 960.889 350.652 961.901 351.344C962.913 352.036 963.916 352.741 964.91 353.458C965.905 354.175 966.89 354.905 967.866 355.646C968.842 356.388 969.808 357.141 970.766 357.907C971.723 358.673 972.671 359.451 973.609 360.24C974.546 361.03 975.473 361.831 976.391 362.644C977.308 363.457 978.216 364.28 979.114 365.115C980.011 365.951 980.897 366.797 981.772 367.655C982.648 368.513 983.513 369.381 984.367 370.261C985.222 371.139 986.065 372.029 986.896 372.929C987.728 373.83 988.549 374.74 989.358 375.661C990.167 376.581 990.964 377.512 991.75 378.453C992.536 379.393 993.31 380.344 994.072 381.304C994.834 382.264 995.584 383.234 996.322 384.212C997.06 385.191 997.785 386.179 998.498 387.176C999.211 388.172 999.911 389.178 1000.6 390.193C1001.29 391.207 1001.96 392.23 1002.62 393.261C1003.29 394.293 1003.94 395.332 1004.57 396.38C1005.21 397.427 1005.83 398.482 1006.44 399.545C1007.13 400.766 1007.81 401.998 1008.47 403.239C1009.38 404.975 1010.27 406.727 1011.12 408.494C1032.53 452.769 1033.35 505.171 1007.05 547.695C996.889 564.125 982.107 580.308 979.442 600.098C975.457 629.69 1011.39 692.101 1006.37 710.08C1003.92 713.069 1000.34 714.654 996.817 716.069C985.231 720.725 972.497 723.516 960.522 727.136C947.243 731.151 933.333 736.87 919.648 739C916.788 738.155 915.041 737.587 913.317 734.928C909.734 729.399 907.977 721.945 906.162 715.659C899.356 692.091 896.113 663.255 882.584 642.604C864.06 614.33 835.04 612.478 806.24 601.471C803.591 600.455 800.983 599.341 798.419 598.128C795.853 596.914 793.338 595.606 790.871 594.202C788.405 592.799 785.995 591.305 783.642 589.72C781.289 588.135 778.999 586.463 776.772 584.705C775.917 584.026 775.071 583.338 774.233 582.639C773.396 581.94 772.567 581.231 771.747 580.512C770.926 579.793 770.115 579.064 769.312 578.326C768.51 577.587 767.717 576.838 766.932 576.08C766.148 575.321 765.373 574.553 764.608 573.776C763.843 572.999 763.087 572.213 762.341 571.417C761.594 570.621 760.858 569.817 760.132 569.003C759.405 568.189 758.689 567.367 757.983 566.536C757.276 565.705 756.58 564.865 755.895 564.016C755.208 563.169 754.533 562.312 753.868 561.448C753.203 560.583 752.549 559.71 751.906 558.83C751.262 557.949 750.629 557.061 750.007 556.164C749.386 555.268 748.775 554.365 748.176 553.453C747.576 552.543 746.987 551.624 746.41 550.699C745.833 549.774 745.267 548.841 744.712 547.902C744.158 546.963 743.616 546.016 743.085 545.064C742.553 544.112 742.034 543.153 741.526 542.188C741.018 541.223 740.522 540.251 740.038 539.273C739.554 538.296 739.082 537.313 738.622 536.324C738.162 535.336 737.714 534.342 737.278 533.342C736.842 532.342 736.419 531.337 736.007 530.327C735.596 529.316 735.198 528.301 734.812 527.281C734.425 526.262 734.051 525.237 733.69 524.208C733.329 523.179 732.981 522.146 732.645 521.108C732.309 520.071 731.986 519.029 731.675 517.983C731.364 516.938 731.067 515.889 730.783 514.836C730.498 513.784 730.226 512.728 729.966 511.669C729.707 510.609 729.461 509.547 729.229 508.481C728.996 507.416 728.776 506.348 728.569 505.277C728.362 504.207 728.169 503.134 727.988 502.058C727.807 500.983 727.64 499.905 727.485 498.826C727.331 497.746 727.19 496.665 727.062 495.582C722.033 454.603 735.129 412.809 760.732 380.669C785.733 349.286 821.949 330.042 861.671 325.449ZM860.431 337.439C820.485 344.521 786.696 362.419 763.16 396.338C742.129 426.646 732.789 466.599 739.734 502.938C745.429 532.731 763.409 562.607 788.899 579.58C814.888 596.884 849.839 596.318 873.148 615.988C882.931 624.245 890.509 634.904 898.768 644.614C904.753 643.526 910.744 642.488 916.664 641.084C909.229 608.797 898.234 577.36 887.041 546.218C882.755 534.295 878.937 521.695 873.851 510.126C859.4 512.487 844.018 512.974 831.489 504.02C824.728 499.187 820.522 492.077 819.233 483.897C817.99 476.017 819.708 467.781 824.503 461.338C828.341 456.179 833.963 452.421 840.416 451.605C847.198 450.747 853.456 453.438 858.62 457.677C862.604 460.947 865.446 464.922 868.23 469.184C873.363 478.939 877.357 489.242 882.452 498.957C891.833 496.41 900.953 493.129 910.467 491.072C908.043 474.756 904.819 455.693 915.481 441.377C919.241 436.328 924.518 432.701 930.866 431.995C937.143 431.297 943.38 433.486 948.143 437.561C953.702 442.317 956.911 449.159 957.387 456.418C958.037 466.345 953.546 475.68 946.909 482.835C939.986 490.299 931.462 494.29 922.403 498.524C931.833 542.505 943.716 585.906 954.951 629.435C960.059 628.324 965.19 627.287 970.228 625.891C963.302 569.728 987.825 568.299 1006.05 523.65C1028.84 467.802 1008.89 402.803 961.968 366.203C933.655 344.123 896.013 334.463 860.431 337.439ZM909.927 502.445C901.964 504.974 894.113 507.1 885.964 508.944C900.206 550.303 915.584 591.276 927.454 633.416L927.93 635.546C932.791 637.475 940.306 633.949 945.136 632.41C930.324 591.791 924.186 548.724 912.37 507.326C911.775 505.241 911.569 503.889 909.927 502.445ZM839.229 463.59C834.657 466.752 829.912 470.019 828.851 475.904C828.093 480.109 829.623 484.057 832.137 487.39C839.022 496.513 849.124 499.902 859.985 501.186C863.102 500.899 866.071 500.946 868.715 499.113C869.867 493.129 861.748 481.803 858.418 476.917C855.314 472.363 849.431 464.303 843.601 463.563C842.169 463.381 840.665 463.495 839.229 463.59ZM974.703 660.693C961.418 664.244 918.595 675.003 909.307 681.366C908.588 683.556 908.356 685.389 909.389 687.533C910.374 689.579 911.221 690.049 913.296 690.744L915.681 690.047C927.845 686.023 939.993 681.881 952.24 678.119C959.716 675.822 968.06 674.137 975.158 670.875C978.475 669.351 981.184 668.182 983.019 664.882C982.882 662.533 982.498 662.561 980.798 660.873C978.411 660.207 977.087 660.323 974.703 660.693ZM932.32 442.437C925.699 446.255 923.193 451.552 921.336 458.762C919.737 464.969 917.38 477.795 921.034 483.377C921.617 484.269 921.629 484.454 922.628 484.549C925.334 484.808 928.937 482.479 931.24 481.118C938.591 475.862 944.377 470.229 945.854 460.814C946.514 456.612 946.122 452.261 943.524 448.748C940.66 444.875 936.937 443.214 932.32 442.437ZM972.496 640.329C948.832 645.745 925.746 653.482 902.037 658.631C902.801 662.481 903.214 666.527 905.452 669.827C907.322 670.015 906.581 670.197 907.74 669.729C908.06 669.586 908.378 669.44 908.699 669.302C924.432 662.517 967.869 654.215 977.995 647.015C978.126 645.19 977.654 643.427 976.486 641.915C975.172 640.215 974.47 640.421 972.496 640.329ZM984.119 678.068C970.545 684.971 929.99 696.135 913.842 700.189C915.19 704.055 915.864 708.012 919.649 710.161C942.62 701.688 965.819 693.163 989.322 686.285C988.506 683.605 987.901 680.03 985.706 678.2L984.119 678.068Z" fill="black"/>
<path d="M1553.32 450.304C1559.23 450.089 1565.15 449.988 1571.07 450.001C1576.99 450.014 1582.91 450.14 1588.83 450.38C1594.74 450.62 1600.64 450.973 1606.54 451.44C1612.45 451.906 1618.34 452.486 1624.22 453.18C1630.09 453.872 1635.96 454.677 1641.8 455.595C1647.65 456.514 1653.48 457.544 1659.29 458.685C1665.1 459.827 1670.88 461.08 1676.65 462.444C1682.4 463.808 1688.13 465.282 1693.84 466.866C1697.32 467.826 1700.79 468.829 1704.25 469.875C1707.71 470.92 1711.15 472.007 1714.58 473.137C1718.02 474.267 1721.43 475.439 1724.83 476.653C1728.24 477.866 1731.63 479.121 1735 480.417C1738.38 481.715 1741.73 483.053 1745.07 484.432C1748.41 485.811 1751.73 487.23 1755.04 488.691C1758.34 490.151 1761.63 491.651 1764.9 493.192C1768.16 494.733 1771.41 496.314 1774.64 497.935C1777.87 499.556 1781.08 501.215 1784.27 502.914C1787.45 504.614 1790.62 506.352 1793.77 508.129C1796.91 509.906 1800.03 511.721 1803.13 513.575C1806.24 515.428 1809.32 517.319 1812.37 519.248C1815.42 521.177 1818.45 523.143 1821.46 525.146C1824.47 527.15 1827.45 529.189 1830.41 531.266C1833.36 533.342 1836.29 535.454 1839.19 537.603C1842.1 539.751 1844.97 541.934 1847.83 544.153C1850.68 546.371 1853.5 548.625 1856.3 550.913C1859.09 553.201 1861.86 555.523 1864.6 557.879C1867.34 560.234 1870.04 562.623 1872.72 565.045C1875.4 567.467 1878.05 569.922 1880.67 572.409C1883.29 574.896 1885.88 577.415 1888.44 579.966C1890.99 582.516 1893.52 585.098 1896.01 587.71C1898.51 590.323 1900.97 592.965 1903.4 595.638C1905.83 598.311 1908.23 601.014 1910.59 603.745C1912.95 606.477 1915.28 609.237 1917.58 612.026C1919.87 614.814 1922.14 617.63 1924.36 620.474C1926.58 623.318 1928.77 626.189 1930.93 629.087C1933.09 631.985 1935.21 634.909 1937.29 637.859C1939.37 640.808 1941.42 643.783 1943.43 646.784C1945.44 649.784 1947.42 652.808 1949.35 655.856C1951.28 658.905 1953.18 661.976 1955.04 665.071C1956.9 668.166 1958.73 671.283 1960.51 674.423C1962.13 677.395 1963.71 680.387 1965.25 683.398C1966.79 686.408 1968.3 689.437 1969.77 692.485C1971.23 695.533 1972.66 698.597 1974.05 701.679C1975.45 704.761 1976.81 707.86 1978.12 710.975C1979.44 714.091 1980.72 717.222 1981.97 720.369C1983.2 723.515 1984.41 726.676 1985.57 729.851C1986.73 733.027 1987.86 736.217 1988.95 739.42C1990.04 742.623 1991.08 745.839 1992.09 749.067C1993.1 752.296 1994.07 755.537 1995 758.789C1995.93 762.041 1996.82 765.304 1997.67 768.578C1998.51 771.852 1999.32 775.135 2000.09 778.429C2000.86 781.723 2001.59 785.025 2002.28 788.337C2002.97 791.648 2003.62 794.967 2004.22 798.294C2004.83 801.622 2005.4 804.956 2005.93 808.297C2006.45 811.637 2006.94 814.984 2007.38 818.338C2007.82 821.69 2008.23 825.048 2008.59 828.41C2008.96 831.773 2009.28 835.14 2009.56 838.51C2009.85 841.88 2010.09 845.253 2010.28 848.63C2010.48 852.006 2010.64 855.385 2010.75 858.765C2010.87 862.145 2010.95 865.526 2010.98 868.908C2011.01 872.29 2011.01 875.671 2010.96 879.053C2010.91 882.435 2010.82 885.816 2010.69 889.195C2010.55 892.575 2010.38 895.953 2010.17 899.328C2009.96 902.703 2009.7 906.075 2009.41 909.444C2009.11 912.814 2008.77 916.179 2008.4 919.539C2008.02 922.901 2007.6 926.257 2007.14 929.608C2006.68 932.959 2006.18 936.303 2005.63 939.642C2005.09 942.98 2004.51 946.312 2003.89 949.636C2003.27 952.961 2002.6 956.277 2001.9 959.586C2001.2 962.894 2000.46 966.193 1999.67 969.483C1998.89 972.773 1998.06 976.053 1997.2 979.323C1996.33 982.593 1995.43 985.853 1994.49 989.101C1976.88 1050.62 1947.31 1101.82 1907.57 1151.51C1898.06 1163.4 1886.28 1179.09 1872.98 1186.48C1873.63 1187 1873.82 1187.11 1874.42 1187.83C1887.31 1202.98 1888.68 1300.39 1886.55 1321.47C1884.83 1338.5 1880.22 1358.79 1865.94 1369.92C1856.88 1376.98 1845.54 1378.53 1834.44 1377.3C1787.78 1372.12 1737.35 1318.67 1709.57 1283.45C1653.55 1314.8 1593.15 1327.31 1530.07 1335.18C1533.2 1342.83 1538.22 1350.33 1542.28 1357.58C1550.08 1371.48 1557.81 1385.41 1565.46 1399.38L1665.44 1585.48C1681.71 1615.88 1699.87 1645.85 1714.77 1676.93C1717.11 1681.78 1719.75 1687.48 1719.78 1692.96C1719.8 1695.85 1719.54 1695.89 1717.48 1698C1716.5 1697.92 1716.51 1697.97 1715.41 1697.59C1710.47 1695.9 1705.09 1688.85 1702.41 1684.43C1689.82 1663.65 1679.27 1640.98 1667.99 1619.42L1608.5 1507.87C1603.47 1499 1598.73 1489.96 1593.64 1481.1C1562.87 1496.38 1533.07 1513.69 1502.66 1529.67C1463.62 1550.05 1423.97 1569.19 1383.73 1587.09C1347.09 1603.39 1311.82 1619 1271.95 1625.39C1264.73 1641.97 1250.24 1682.28 1238.31 1693.58C1236.19 1695.59 1234.66 1696.37 1231.75 1696.32L1230.18 1694.32C1227.57 1682.48 1243.57 1655.64 1248.5 1643.72C1280.13 1567.22 1276.91 1518.71 1257.91 1440.05C1251.45 1413.31 1244.39 1385.82 1233.71 1360.4C1202.26 1285.58 1145 1297.68 1080.88 1271.41C1026.1 1248.97 982.5 1212.68 959.411 1156.91C933.006 1093.13 938.24 1005.57 976.742 947.444C987.456 931.272 1010.2 911.023 1016.15 894.247C1024.4 870.996 1004.58 846.721 1014.83 823.585C1032.47 783.759 1066.24 815.828 1093.17 805.835C1126.28 793.548 1144.72 755.774 1160.56 726.837C1166.93 715.215 1173.86 703.627 1179.28 691.539L1179.9 690.139C1177.61 688.583 1175.12 687.027 1173.22 684.971C1170.15 681.626 1169.18 676.989 1169.39 672.549C1170.29 653.279 1195.78 623.467 1209.27 610.838C1248.42 574.19 1293.15 563.665 1345.45 565.336C1354.1 549.527 1365.61 534.13 1377.48 520.584C1422.24 469.532 1488.42 454.583 1553.32 450.304ZM1218.88 664.871C1195.5 678.303 1170.68 739.358 1155.68 763.989C1147.42 777.559 1137.63 790.634 1125.6 801.104C1114.71 810.571 1101.26 819.52 1086.56 821.124C1067.08 823.249 1034.54 803.067 1027.15 831.329C1021.72 852.125 1037.38 872.58 1031.3 893.717C1026.08 911.894 1002.24 934.814 990.819 950.997C983.147 961.866 977.255 973.588 972.386 985.938L973.388 986.539C1002.39 1003.74 1036.86 1004.46 1069.22 998.861C1076.98 997.522 1084.88 994.314 1092.66 993.754C1096.28 993.493 1099.47 993.962 1102.44 996.11C1102.95 998.197 1103.13 998.538 1101.96 1000.5C1098.28 1006.59 1089.99 1009 1083.46 1010.33C1043.56 1018.49 1004.27 1018.35 967.523 999.166C950.184 1052.81 953.306 1116.44 978.978 1166.72C1004.98 1217.65 1054.62 1249.83 1107.89 1266.84C1161.99 1284.13 1208.86 1281.21 1238.72 1338.73C1252.85 1365.92 1261.42 1396.24 1268.87 1425.82C1285.3 1491.11 1294.64 1545.66 1275.18 1611.73C1319.79 1602.35 1361.92 1582.17 1402.91 1562.77C1427.68 1551.12 1452.31 1539.2 1476.81 1527.02C1514.04 1507.82 1552.22 1489.72 1588.23 1468.32C1575.39 1445.19 1562.77 1421.91 1549.69 1398.92C1539.73 1381.43 1520.25 1351.89 1515.02 1333C1454.48 1287.83 1412.02 1227.31 1400.98 1151.6C1399.11 1138.69 1398.49 1125.92 1398.52 1112.88C1387.21 1107.23 1370.9 1099.6 1366.39 1086.78C1365.59 1084.5 1365.69 1082.91 1366.15 1080.58C1367.64 1078.83 1367.95 1078.32 1370.44 1078.24C1374.39 1078.1 1390.64 1092.46 1396.37 1095.54C1436.55 1117.15 1488.7 1109.13 1524.03 1081.81C1540.64 1068.96 1554.84 1050.97 1557.53 1029.61C1559.33 1015.37 1555.15 1001.74 1546.18 990.585C1530.26 970.758 1502.3 962.968 1478.03 960.455C1466.39 959.25 1453.96 959.131 1442.4 961.175C1427.13 963.873 1409.9 973.621 1398.43 975.233C1396.06 975.567 1394.48 975.314 1392.46 973.969C1391.1 971.66 1390.71 971.179 1390.72 968.413C1393.76 962.253 1401.64 959.397 1407.82 957.278C1418.81 953.516 1430.87 951.179 1442.38 949.61C1427.73 915.933 1423.1 883.699 1425.93 847.239C1413.84 839.944 1404.64 832.305 1401 818.052C1396.04 798.609 1402.11 785.148 1402.8 767.242C1402.89 765.086 1402.44 763.521 1401.5 761.612L1399.89 760.753C1395.33 762.8 1392.55 771.834 1390.85 776.321C1388.54 782.435 1383.39 802.955 1377.62 805.636C1376.69 805.554 1375.73 805.651 1374.84 805.392C1371.66 804.472 1319.95 762.179 1316.34 758.039C1314.12 755.467 1313.68 753.552 1313.97 750.087C1315.5 731.915 1330.12 715.585 1338.52 700.184C1329.36 703.46 1322.02 707.809 1314.43 713.94C1307.56 719.5 1293.39 737.48 1285.8 739.312C1283.06 739.971 1279.23 738.197 1276.83 737.063C1263.33 730.667 1251.35 720.983 1238.06 714.063C1230.58 710.165 1221.59 708.727 1214.55 704.285C1212.34 702.888 1210.18 701.023 1209.43 698.416C1206.76 689.074 1222.65 671.45 1220.72 666.988C1220.35 666.131 1219.5 665.576 1218.88 664.871ZM1551.82 464.304C1510.24 466.812 1460.95 473.779 1425.46 496.988C1455.42 493.517 1483.63 493.868 1508.39 513.563C1508.9 513.96 1509.4 514.364 1509.9 514.775C1510.4 515.186 1510.89 515.602 1511.38 516.025C1511.87 516.448 1512.35 516.877 1512.82 517.313C1513.3 517.747 1513.76 518.188 1514.23 518.635C1514.69 519.082 1515.15 519.535 1515.6 519.993C1516.06 520.452 1516.51 520.916 1516.94 521.386C1517.39 521.856 1517.82 522.331 1518.26 522.812C1518.68 523.292 1519.1 523.778 1519.52 524.27C1519.94 524.761 1520.35 525.258 1520.75 525.759C1521.16 526.261 1521.56 526.768 1521.95 527.279C1522.34 527.791 1522.73 528.308 1523.11 528.829C1523.48 529.35 1523.86 529.877 1524.23 530.408C1524.59 530.939 1524.95 531.474 1525.3 532.014C1525.65 532.554 1525.99 533.098 1526.33 533.647C1526.67 534.195 1527 534.748 1527.32 535.305C1527.65 535.862 1527.97 536.422 1528.27 536.988C1528.59 537.552 1528.89 538.121 1529.19 538.693C1529.48 539.266 1529.77 539.843 1530.05 540.422C1530.33 541.002 1530.61 541.585 1530.87 542.172C1531.14 542.758 1531.39 543.349 1531.65 543.942C1531.9 544.535 1532.15 545.131 1532.39 545.731C1532.62 546.33 1532.85 546.933 1533.07 547.538C1533.29 548.143 1533.5 548.751 1533.71 549.362C1533.92 549.972 1534.12 550.585 1534.31 551.2C1534.49 551.816 1534.68 552.434 1534.85 553.054C1535.03 553.674 1535.19 554.297 1535.35 554.921C1535.51 555.545 1535.66 556.171 1535.81 556.799C1535.95 557.428 1536.08 558.058 1536.21 558.689C1536.34 559.321 1536.46 559.954 1536.57 560.588C1536.68 561.223 1536.79 561.859 1536.88 562.496C1536.98 563.133 1537.07 563.771 1537.15 564.411C1537.23 565.051 1537.3 565.691 1537.36 566.332C1540.97 600.246 1521.86 633.003 1501.14 658.247C1497.6 662.533 1493.87 666.646 1489.95 670.584C1498.36 677.263 1506.68 684.044 1514.92 690.927C1523.16 697.81 1531.32 704.793 1539.39 711.876C1547.46 718.958 1555.44 726.139 1563.34 733.417C1571.23 740.695 1579.03 748.068 1586.75 755.538C1594.46 763.007 1602.08 770.57 1609.6 778.226C1617.13 785.882 1624.57 793.629 1631.9 801.466C1639.24 809.304 1646.49 817.231 1653.63 825.247C1660.77 833.262 1667.82 841.363 1674.76 849.551C1689.06 866.47 1703.54 883.432 1716.21 901.612C1730.53 922.152 1742.98 943.82 1755.2 965.641C1762.44 978.313 1769.41 991.128 1776.12 1004.09C1782.83 1017.05 1789.27 1030.14 1795.44 1043.35C1801.61 1056.58 1807.51 1069.92 1813.13 1083.38C1818.76 1096.85 1824.1 1110.42 1829.17 1124.11C1837.95 1147.42 1846.18 1170.93 1853.88 1194.62C1857.17 1204.7 1861.87 1216.46 1863.18 1227C1863.33 1228.26 1863.23 1229.45 1862.98 1230.69C1863.26 1231.13 1863.55 1231.58 1863.82 1232.03C1866.87 1237.21 1868.4 1257.67 1872.72 1259.77C1875.62 1251.84 1864.58 1190.55 1861.02 1180.72L1863.88 1177.58C1869.65 1171.18 1876.37 1165.69 1882.42 1159.56C1890.75 1151.13 1898.36 1141.94 1905.69 1132.63C1907.65 1130.17 1909.58 1127.68 1911.49 1125.17C1913.39 1122.66 1915.27 1120.14 1917.11 1117.59C1918.96 1115.04 1920.78 1112.47 1922.57 1109.88C1924.36 1107.29 1926.12 1104.68 1927.85 1102.05C1929.58 1099.41 1931.29 1096.76 1932.95 1094.1C1934.62 1091.43 1936.27 1088.74 1937.88 1086.03C1939.5 1083.33 1941.08 1080.61 1942.62 1077.87C1944.17 1075.13 1945.69 1072.37 1947.18 1069.6C1948.67 1066.82 1950.13 1064.03 1951.55 1061.22C1952.98 1058.41 1954.37 1055.59 1955.74 1052.75C1957.1 1049.92 1958.43 1047.06 1959.73 1044.19C1961.03 1041.32 1962.3 1038.44 1963.53 1035.55C1964.76 1032.65 1965.96 1029.74 1967.13 1026.81C1968.3 1023.9 1969.43 1020.96 1970.53 1018.01C1971.64 1015.06 1972.7 1012.1 1973.74 1009.13C1974.78 1006.16 1975.79 1003.17 1976.75 1000.17C1977.72 997.181 1978.66 994.176 1979.56 991.158C1980.46 988.142 1981.33 985.116 1982.16 982.081C1983 979.045 1983.8 976 1984.56 972.947C1985.33 969.893 1986.06 966.831 1986.75 963.761C1987.45 960.691 1988.11 957.614 1988.74 954.53C1989.37 951.445 1989.96 948.353 1990.52 945.255C1991.08 942.157 1991.6 939.053 1992.09 935.944C1992.58 932.833 1993.03 929.718 1993.45 926.598C1993.87 923.478 1994.26 920.354 1994.61 917.225C1994.95 914.097 1995.27 910.965 1995.55 907.829C1995.83 904.693 1996.07 901.555 1996.28 898.414C1996.48 895.273 1996.66 892.13 1996.8 888.986C1996.93 885.84 1997.04 882.694 1997.1 879.547C1997.17 876.4 1997.2 873.252 1997.2 870.104C1997.2 866.956 1997.16 863.809 1997.09 860.662C1997.01 857.515 1996.89 854.369 1996.75 851.224C1996.57 847.927 1996.36 844.632 1996.1 841.34C1995.84 838.049 1995.54 834.761 1995.19 831.476C1994.85 828.192 1994.47 824.912 1994.05 821.637C1993.63 818.362 1993.16 815.093 1992.66 811.83C1992.16 808.567 1991.62 805.31 1991.03 802.059C1990.45 798.809 1989.82 795.567 1989.16 792.332C1988.49 789.098 1987.79 785.872 1987.05 782.655C1986.3 779.437 1985.52 776.23 1984.69 773.032C1983.87 769.835 1983 766.648 1982.1 763.471C1981.2 760.295 1980.26 757.13 1979.28 753.977C1978.3 750.824 1977.28 747.683 1976.22 744.555C1975.16 741.427 1974.06 738.313 1972.93 735.213C1971.79 732.112 1970.61 729.026 1969.4 725.954C1968.18 722.882 1966.93 719.826 1965.64 716.786C1964.36 713.745 1963.03 710.721 1961.67 707.713C1960.31 704.705 1958.91 701.714 1957.46 698.741C1956.03 695.768 1954.56 692.813 1953.05 689.876C1951.54 686.939 1949.99 684.022 1948.41 681.123C1946.82 678.225 1945.2 675.346 1943.55 672.488C1941.89 669.629 1940.21 666.791 1938.48 663.975C1936.76 661.158 1935 658.364 1933.2 655.591C1931.41 652.817 1929.58 650.067 1927.71 647.339C1925.85 644.611 1923.96 641.907 1922.03 639.226C1920.1 636.545 1918.14 633.888 1916.14 631.255C1914.15 628.623 1912.12 626.016 1910.06 623.434C1908 620.851 1905.91 618.295 1903.79 615.765C1901.67 613.234 1899.51 610.73 1897.33 608.252C1895.14 605.775 1892.92 603.325 1890.68 600.903C1888.43 598.48 1886.16 596.086 1883.85 593.72C1881.55 591.354 1879.22 589.017 1876.86 586.709C1874.49 584.4 1872.1 582.121 1869.67 579.872C1867.26 577.623 1864.81 575.404 1862.34 573.215C1782.17 501.006 1662.73 458.128 1554.79 464.098C1553.8 464.15 1552.81 464.219 1551.82 464.304ZM1813.75 1132.48C1816.8 1160.22 1792.18 1206.45 1775.11 1227.56C1759.59 1246.77 1740.66 1261.26 1721.06 1275.92C1736.93 1298.38 1770.69 1330.15 1793.72 1345.71C1809.8 1355.86 1828.21 1367.07 1848.1 1362.58C1854.91 1361.04 1860.91 1357.52 1864.53 1351.4C1878.25 1328.14 1848.3 1224.02 1840.74 1198.86C1836.5 1184.74 1824.6 1142.06 1815.63 1133.1L1813.75 1132.48ZM1378.86 542.851C1370.84 551.408 1363.69 560.498 1356.88 570.027C1383.45 590.88 1410.17 611.547 1437.04 632.028C1449.09 641.317 1462.26 653.704 1475.64 660.821C1477.87 662.001 1478.58 661.82 1481.01 661.557C1489.4 652.172 1497.2 642.41 1504.78 632.368C1487.85 618.762 1391.16 542.088 1378.86 542.851Z" fill="black"/>
<path d="M1714.2 586.092C1720.89 585.661 1727.66 586.684 1733.36 590.438C1745.04 598.133 1747.16 612.013 1749.44 624.629C1761.64 620.64 1773.76 618.825 1785.85 624.568C1794.75 628.789 1801.84 636.404 1804.75 645.84C1808.61 658.321 1804 668.754 1797.97 679.446C1809.75 684.237 1821.17 690.437 1827.82 701.724C1831.88 708.614 1833.1 716.604 1830.96 724.336C1828.25 734.11 1819.41 742.953 1810.57 747.738C1810.89 747.925 1811.21 748.101 1811.53 748.3C1816.74 751.641 1820.86 760.85 1821.8 766.655C1821.89 767.226 1821.97 767.799 1822.03 768.374C1822.09 768.95 1822.14 769.526 1822.17 770.103C1822.2 770.68 1822.23 771.258 1822.23 771.836C1822.23 772.414 1822.22 772.992 1822.2 773.571C1822.18 774.148 1822.14 774.725 1822.09 775.301C1822.04 775.877 1821.97 776.452 1821.89 777.024C1821.81 777.597 1821.72 778.168 1821.61 778.736C1821.51 779.304 1821.38 779.869 1821.25 780.431C1821.11 780.994 1820.96 781.552 1820.79 782.108C1820.63 782.663 1820.46 783.213 1820.27 783.76C1820.08 784.306 1819.87 784.847 1819.66 785.384C1819.44 785.92 1819.21 786.451 1818.97 786.976C1818.73 787.502 1818.47 788.021 1818.2 788.534C1817.93 789.047 1817.65 789.553 1817.36 790.052C1817.07 790.551 1816.76 791.043 1816.45 791.528C1816.13 792.012 1815.8 792.488 1815.46 792.956C1809.54 801.093 1800.78 805.952 1790.89 807.494C1774.11 810.111 1760.38 802.191 1747.49 792.539C1722.3 772.567 1701.11 745.914 1679.01 722.661C1658.85 701.447 1636.61 681.643 1618.43 658.669C1613.4 652.319 1605.87 643.185 1605.1 634.878C1604.48 628.192 1606.76 622.058 1610.99 616.914C1617.66 608.843 1628.53 603.237 1638.94 602.315C1652.41 601.125 1662.14 607.406 1672.04 615.463C1683.8 599.413 1693.84 589.486 1714.2 586.092ZM1716.43 598.215C1703.89 599.82 1693.58 604.916 1685.81 615.157C1681.4 620.959 1679.59 630.258 1674.3 634.973C1671.99 635.189 1671.01 635.001 1669.26 633.344C1660.56 625.11 1657.08 612.62 1642.82 611.849C1636.05 611.485 1628.98 614.805 1624.16 619.384C1620.16 623.184 1617.39 628.322 1617.3 633.902C1617.22 638.055 1618.34 641.015 1620.7 644.427C1638.98 670.889 1665.25 692.697 1687.7 715.583C1706.78 735.037 1724.5 755.993 1744.13 774.878C1746.37 777.046 1748.67 779.151 1751.03 781.193C1761.05 789.57 1771.01 797.074 1784.96 795.687C1792.59 794.927 1802.72 791.398 1807.65 785.377C1810.33 782.101 1811.06 778.109 1810.57 773.984C1809.05 761.506 1791.6 746.655 1793.32 741.602C1803.3 733.197 1818.65 736.432 1819.79 718.051C1820.16 712.301 1819.09 706.814 1814.96 702.551C1806.09 693.39 1776.69 693.124 1776.34 687.41C1775.73 677.457 1806.89 659.796 1791.13 642.646C1785.54 636.569 1774.72 634.032 1766.78 633.91C1759.24 633.794 1744.31 638.61 1737.96 635.077C1729.81 622.949 1743.64 603.011 1722.03 598.711C1720.19 598.344 1718.3 598.271 1716.43 598.215Z" fill="black"/>
<path d="M1248.58 742.279C1251.7 741.941 1254.61 741.783 1257.69 742.56C1267.09 744.94 1275.21 752.125 1280.01 760.407C1283.24 765.972 1285.15 772.458 1283.23 778.791C1281.16 785.606 1275.98 788.749 1270.12 792C1269.81 791.964 1269.49 791.949 1269.18 791.891C1262.17 790.573 1240.69 768.829 1236.52 762.265C1235.13 760.074 1234.62 758.191 1235.3 755.644C1236.97 749.516 1243.38 745.244 1248.58 742.279Z" fill="black"/>
<path d="M1457.5 999.734C1461.26 998.989 1465.29 998.897 1469.11 999.081C1483.61 999.798 1497.87 1005.65 1507.64 1016.59C1514.11 1023.84 1517.72 1032.17 1516.88 1042.01C1516.6 1045.24 1515.95 1047.72 1513.41 1049.8L1510.83 1049.53C1503.35 1044.96 1505.03 1037.38 1500.9 1030.55C1493.22 1017.84 1483.69 1014.42 1470.1 1010.91C1474.56 1019.68 1478.71 1027.34 1478.1 1037.61C1477.47 1048.43 1471.98 1055.93 1464.37 1062.99C1457.81 1068.28 1447.66 1073.49 1439.21 1073.96C1433.44 1074.27 1426.32 1072.76 1422.15 1068.47C1420.88 1067.17 1419.69 1065.35 1420.07 1063.42C1420.25 1062.48 1421.98 1059.92 1422.87 1059.51C1427.68 1057.23 1441.3 1064.38 1455.14 1055.88C1460 1052.89 1463.81 1048.69 1464.92 1042.95C1466.96 1032.28 1460.33 1021.65 1454.73 1013.14C1447.65 1015.45 1436.36 1023.64 1429.46 1023.04C1426.91 1021.85 1425.49 1020.94 1423.7 1018.77C1423.25 1016.53 1423.07 1015.48 1424.52 1013.55C1431 1004.86 1447.42 1001.2 1457.5 999.734Z" fill="black"/>
<path d="M1187.31 796C1194.41 796.349 1202.23 798.344 1208.3 802.154C1208.72 802.417 1209.14 802.691 1209.55 802.976C1209.96 803.261 1210.36 803.558 1210.76 803.865C1211.15 804.171 1211.54 804.488 1211.92 804.815C1212.3 805.142 1212.67 805.479 1213.03 805.826C1213.39 806.173 1213.75 806.529 1214.09 806.894C1214.43 807.259 1214.76 807.634 1215.08 808.017C1215.41 808.4 1215.72 808.791 1216.03 809.191C1216.33 809.591 1216.62 809.998 1216.9 810.414C1217.18 810.829 1217.45 811.251 1217.72 811.681C1217.98 812.11 1218.22 812.546 1218.46 812.989C1218.7 813.432 1218.93 813.881 1219.14 814.335C1219.36 814.79 1219.56 815.25 1219.75 815.716C1219.94 816.181 1220.12 816.651 1220.28 817.126C1220.45 817.601 1220.6 818.08 1220.74 818.563C1220.88 819.046 1221.01 819.533 1221.13 820.023C1221.24 820.513 1221.35 821.006 1221.44 821.501C1223.99 834.705 1217.39 847.848 1210.43 858.564C1200.57 873.735 1188.91 885.304 1170.88 889C1168.75 888.662 1166.59 888.339 1164.67 887.278C1161.19 885.358 1158.44 881.79 1157.51 877.891C1155.15 867.924 1161.48 854.837 1166.61 846.606C1174.21 834.441 1186.3 821.218 1200.72 818.039C1202.18 817.717 1203.27 817.652 1204.52 816.752C1205.51 816.042 1205.14 816.006 1205.31 814.52C1202.27 811.153 1195.15 809.439 1190.95 807.545C1187.92 806.173 1185.9 805.029 1184.66 801.754C1185.07 798.76 1185.53 798.294 1187.31 796Z" fill="black"/>
</svg>
